HIERARCHY
ROOT hip
{
	OFFSET 0.000000 0.000000 0.000000 
	CHANNELS 6 Xposition Yposition Zposition Xrotation Zrotation Yrotation
	JOINT abdomen
	{
		OFFSET 0.000000 3.402643 0.000000 
		CHANNELS 3 Xrotation Zrotation Yrotation
		JOINT chest
		{
			OFFSET 0.000000 8.438565 -0.680529 
			CHANNELS 3 Xrotation Zrotation Yrotation
			JOINT neck
			{
				OFFSET 0.000000 10.207942 -0.272212 
				CHANNELS 3 Xrotation Zrotation Yrotation
				JOINT head
				{
					OFFSET 0.000000 3.130431 0.000000 
					CHANNELS 3 Xrotation Zrotation Yrotation
					End Site
					{
						OFFSET 0.000000 3.130435 0.000000 
					}
				}
			}
			JOINT lCollar
			{
				OFFSET 3.470700 6.669187 -0.816635 
				CHANNELS 3 Yrotation Zrotation Xrotation
				JOINT lShldr
				{
					OFFSET 3.198488 0.000000 0.000000 
					CHANNELS 3 Zrotation Yrotation Xrotation
					JOINT lForeArm
					{
						OFFSET 10.139888 0.000000 0.000000 
						CHANNELS 3 Yrotation Zrotation Xrotation
						JOINT lHand
						{
							OFFSET 8.370511 0.000000 0.000000 
							CHANNELS 3 Zrotation Yrotation Xrotation
							End Site
							{
								OFFSET 4.083176 0.000000 0.000000 
							}
						}
					}
				}
			}
			JOINT rCollar
			{
				OFFSET -3.470700 6.669187 -0.816635 
				CHANNELS 3 Yrotation Zrotation Xrotation
				JOINT rShldr
				{
					OFFSET -3.198488 0.000000 0.000000 
					CHANNELS 3 Zrotation Yrotation Xrotation
					JOINT rForeArm
					{
						OFFSET -10.139888 0.000000 0.000000 
						CHANNELS 3 Yrotation Zrotation Xrotation
						JOINT rHand
						{
							OFFSET -8.370511 0.000000 0.000000 
							CHANNELS 3 Zrotation Yrotation Xrotation
							End Site
							{
								OFFSET -4.083176 0.000000 0.000000 
							}
						}
					}
				}
			}
		}
	}
	JOINT lThigh
	{
		OFFSET 5.308129 -1.633274 1.361059 
		CHANNELS 3 Xrotation Zrotation Yrotation
		JOINT lShin
		{
			OFFSET -2.041588 -20.007561 0.000000 
			CHANNELS 3 Xrotation Zrotation Yrotation
			JOINT lFoot
			{
				OFFSET 0.000000 -19.190928 -1.224953 
				CHANNELS 3 Xrotation Yrotation Zrotation
				End Site
				{
					OFFSET 0.000000 -2.449906 4.627600 
				}
			}
		}
	}
	JOINT rThigh
	{
		OFFSET -5.308129 -1.633274 1.361059 
		CHANNELS 3 Xrotation Zrotation Yrotation
		JOINT rShin
		{
			OFFSET 2.041588 -20.007561 0.000000 
			CHANNELS 3 Xrotation Zrotation Yrotation
			JOINT rFoot
			{
				OFFSET 0.000000 -19.190928 -1.224953 
				CHANNELS 3 Xrotation Yrotation Zrotation
				End Site
				{
					OFFSET 0.000000 -2.449906 4.627600 
				}
			}
		}
	}
}
MOTION
Frames: 8
Frame Time: 0.033333
-0.748236 43.995029 -5.339812 -13.782305 1.185567 2.970989 0.000000 0.000000 0.000000 4.257864 -0.282421 -0.987871 9.156016 0.336348 -2.424816 26.571505 -1.783615 -1.183810 -8.956953 3.283607 4.652518 6.938957 -75.344231 -29.759438 -0.440571 -13.708024 51.683460 10.862707 -14.228770 -4.908039 5.620286 7.152441 4.085209 -18.867722 68.948433 -25.000395 6.367254 12.656178 44.621304 -5.586942 5.547625 -3.813035 -5.973903 14.416037 5.168056 50.685848 3.520653 -5.150662 -29.912069 3.389157 -12.667200 -6.532761 -17.584333 -10.875803 52.819687 -0.761290 10.241729 -30.519184 -2.000073 7.340095 
-0.727853 43.983326 -5.275342 -13.848804 0.730097 2.974328 0.000000 0.000000 0.000000 4.150400 0.116880 -1.007124 9.055904 0.243717 -2.438244 26.088268 -1.248152 -1.447945 -9.560702 2.444971 4.538870 7.759964 -74.908997 -29.501001 -0.469132 -14.027577 49.747707 11.561553 -13.504721 -4.960967 5.770004 7.033223 3.973235 -18.219120 68.437721 -24.319464 7.285325 12.503103 44.546650 -5.379603 5.531682 -3.791039 -5.926321 14.770764 5.107175 50.879135 3.727471 -5.087366 -30.168652 3.442248 -12.760297 -6.337371 -17.046688 -10.718409 52.690556 -0.712250 10.066594 -30.543093 -2.017226 7.444309 
-0.669208 43.953743 -5.222790 -13.819361 0.682774 3.132848 0.000000 0.000000 0.000000 4.062500 0.009741 -1.278603 8.810144 0.279666 -2.723674 25.715233 -0.933341 -1.420260 -9.703855 2.814896 4.467222 8.501609 -74.688499 -30.777882 -0.596925 -13.432921 52.292549 10.528210 -14.663017 -4.897989 5.485876 7.162121 3.881351 -19.396103 69.037727 -25.847872 5.973581 12.552576 44.756721 -5.619902 5.751001 -3.815059 -6.033619 14.594624 4.812367 51.084610 3.893572 -4.770791 -30.324663 3.486491 -12.881599 -6.248943 -17.023706 -10.666200 52.716339 -0.750631 9.856019 -30.678089 -2.102965 7.674492 
-0.627805 43.949966 -5.187140 -13.779817 0.493198 3.072409 0.000000 0.000000 0.000000 3.945324 0.136395 -1.260101 8.983232 0.053955 -2.812192 24.062504 -0.037649 -1.738934 -9.576463 2.438405 4.339935 10.033169 -74.809212 -32.489105 -0.511603 -13.384255 52.500256 10.611536 -14.853091 -4.923330 5.513952 6.975547 3.778878 -19.437298 68.981796 -26.023657 5.680956 12.571159 44.700455 -5.698175 5.745924 -3.819344 -6.025082 14.656878 4.754884 51.169231 3.992283 -4.668662 -30.478384 3.519964 -12.918558 -6.229610 -16.821459 -10.556627 52.626259 -0.781224 9.887336 -30.676449 -2.107608 7.705696 
-0.574824 43.947201 -5.143937 -13.906698 0.455011 3.041641 0.000000 0.000000 0.000000 4.003912 0.097418 -1.174805 9.228427 -0.006911 -2.989186 22.002823 0.645987 -2.062813 -9.609921 2.417371 4.391210 11.282279 -74.916237 -33.967533 -0.469496 -13.257254 52.186619 10.843058 -14.768600 -4.954127 5.516030 6.951295 3.838007 -19.787018 68.986107 -26.598072 4.926682 12.545997 44.768265 -5.750682 5.497855 -3.821203 -5.818377 14.632691 4.805899 51.216232 4.038695 -4.628054 -30.585857 3.519679 -12.919970 -6.073595 -16.771774 -10.509673 52.569012 -0.877533 9.762150 -30.675920 -2.139285 7.892603 
-0.543869 43.935249 -5.108450 -13.799051 0.322448 2.860260 0.000000 0.000000 0.000000 3.876959 0.097433 -1.106662 9.388659 -0.242641 -2.963602 19.623602 1.619974 -2.330899 -9.493009 2.217239 4.270041 13.016635 -74.888100 -35.541084 -0.489199 -13.267316 51.508221 11.143993 -14.551976 -4.986101 5.681676 6.823169 3.724309 -19.761997 68.841805 -26.881916 4.760891 12.614276 44.891853 -5.626924 5.408025 -3.805022 -5.866474 14.757399 4.952522 51.318256 3.988986 -4.622104 -30.709921 3.534836 -12.852229 -6.200197 -16.654579 -10.339706 52.556774 -0.898184 9.810681 -30.704760 -2.165573 7.908518 
-0.532290 43.908691 -5.078637 -13.515625 0.018990 2.632154 0.000000 0.000000 0.000000 3.613302 0.194924 -0.954455 9.398250 -0.213491 -2.924279 17.486395 2.084098 -2.574604 -9.286850 2.288464 4.031464 14.113735 -75.031052 -36.590107 -0.489775 -13.330985 49.781544 11.295384 -14.189010 -4.977392 5.890749 6.780135 3.478649 -19.018459 68.347221 -26.171984 5.517758 12.600970 44.979160 -5.299067 5.350945 -3.776597 -6.120680 15.100267 5.128671 51.542389 3.970856 -4.689561 -30.937449 3.555235 -12.828883 -6.561789 -16.362423 -10.080414 52.594654 -0.907801 9.836383 -30.743023 -2.163749 7.921829 
-0.450619 43.914612 -5.032842 -14.101764 0.303083 2.619175 0.000000 0.000000 0.000000 4.033205 -0.048707 -0.989771 9.632459 -0.328173 -3.139941 16.323576 2.099950 -2.683977 -9.273764 2.074110 4.387849 16.133684 -74.866417 -38.758060 -0.366689 -13.345808 48.623543 11.119973 -14.896312 -5.008303 5.834588 6.596232 3.889371 -19.955912 68.803024 -27.398794 4.276456 12.571836 45.313892 -5.196629 5.739208 -3.782147 -5.428506 14.771298 5.206749 51.491959 3.902368 -4.604434 -30.973963 3.529598 -12.743325 -5.867733 -16.827677 -10.418936 52.586430 -0.947023 10.310651 -30.808262 -2.139786 7.800402 
